<?xml version="1.0" encoding="UTF-8"?>
<svg id="Layer_2" data-name="Layer 2" xmlns="http://www.w3.org/2000/svg" xmlns:xlink="http://www.w3.org/1999/xlink" viewBox="0 0 328.85 245.04">
  <defs>
    <style>
      .cls-1, .cls-2, .cls-3, .cls-4, .cls-5, .cls-6 {
        fill: none;
      }

      .cls-7 {
        fill: #9ad6f5;
      }

      .cls-8 {
        fill: #f9c6ce;
      }

      .cls-2 {
        stroke: #7b6f9b;
      }

      .cls-2, .cls-3, .cls-4, .cls-5, .cls-6, .cls-9 {
        stroke-miterlimit: 10;
      }

      .cls-10 {
        fill: #f8eaba;
      }

      .cls-3 {
        stroke: #f9c6ce;
      }

      .cls-11 {
        fill: #fff;
      }

      .cls-4 {
        stroke: #907f6a;
      }

      .cls-12 {
        fill: #bcdfbc;
      }

      .cls-13 {
        fill: #f8ccc0;
      }

      .cls-14 {
        fill: #beaf9a;
      }

      .cls-5 {
        stroke: #f4c4ce;
      }

      .cls-15 {
        fill: #f8eabb;
      }

      .cls-6 {
        stroke: #beae99;
      }

      .cls-9 {
        fill: #f4c4ce;
        stroke: url(#Unnamed_Pattern);
      }

      .cls-16 {
        fill: #ab9bcb;
      }

      .cls-17 {
        fill: #beae99;
      }
    </style>
    <pattern id="Unnamed_Pattern" data-name="Unnamed Pattern" x="0" y="0" width="116.22" height="129.22" patternTransform="translate(-583.95 -446.64)" patternUnits="userSpaceOnUse" viewBox="0 0 116.22 129.22">
      <g>
        <rect class="cls-1" x="0" width="116.22" height="129.22"/>
        <path class="cls-5" d="M46.44,16.27s-3.19.21-2.13-2.55-2.55,0-2.55,0c0,0-10.2-6.38-11.26-5.31s1.91,5.1,1.91,5.1c0,0,.64,1.49-3.4,0,0,0-6.59-9.78-7.86-9.14s-2.34,3.83,3.19,7.86c0,0,5.74,1.49,4.04,6.8,0,0-4.46,1.06-9.99-3.19,0,0,1.06-1.7-11.9-5.1,0,0-3.83,6.19,1.06,8.41,0,0,7.86.97,9.56,0,0,0,11.26.94,12.11,9.45,0,0,4.25,5.53-8.93,11.05,0,0-14.33,3.4-15.24,2.98s-2.83,3.83,2.49,2.98,12.75-2.34,14.45,1.28c0,0,2.98,4.25-.21,8.71,0,0-7.86,9.08-8.93,8.36s-11.48,2.69-12.33,9.49,14.45-4.68,14.45-4.68c0,0-1.06-5.31,5.31-7.23,0,0,1.06-3.19,5.95-2.76,0,0,2.34-3.61,4.68-.64,0,0-.85,1.28,2.34,0,0,0,3.4-1.7,2.98,1.7,0,0-4.25,3.83-4.25,6.38s6.59-4.89,6.59-4.89c0,0-.85,3.19.85,3.61s1.7-4.68,1.7-4.68c0,0,3.19-1.28,5.31-4.46,0,0,2.55-1.91,2.34,2.34,0,0-1.68,3.61.01,6.8,0,0,3.39,9.56,2.33,16.37,0,0-1.08,32.09.21,34.22,0,0-1.48,13.6,2.98,13.18s1.06-6.8,1.06-6.8c0,0-2.76-9.14-.85-9.14s-3.61-26.36-1.28-31.46c0,0-2.76-20.83,1.06-23.38,0,0,2.55-.64,4.89,2.98,0,0,.43.79,4.04,3.05,0,0,1.28,1.39,2.55,2.57,0,0-2.77-6.69-.96-6.69,0,0-.11-3.61,3.72-2.55l3.4,4.68s4.89,7.01,8.08,6.38-7.86-6.38-7.23-8.71c0,0,4.46-1.06.21-3.4,0,0-5.31-9.56,2.13-7.86,0,0,13.39,5.95,14.03,4.68s1.91-2.76-2.98-3.4-10.84-4.46-10.84-4.46c0,0-3.19-1.91,2.98-3.4l5.06-.85s-.81-.64-5.06-1.7c0,0-4.68,1.7-4.46-3.61s9.53-4.68,9.53-4.68c0,0,5.35.85,8.54-2.55,0,0,4.89-.21,5.31.85,0,0,6.16-1.7,8.93-.21,0,0,5.95-3.19,8.29-2.76s1.28-2.98-1.91-3.83-8.29,2.55-8.29,2.55c0,0-7.44-.64-8.71,1.49,0,0-4.46,1.49-6.38.85s-7.86,1.7-7.86,1.7c0,0-12.33,4.25-8.93-2.76l2.98-1.28s-4.89,1.28-2.98-5.74c0,0,4.25-5.95,5.53-5.1s5.31-2.55,0-3.19c0,0-6.59,5.95-10.63,5.74,0,0-4.89,0-5.53-.64s-.85,1.7-.85,1.7c0,0-5.31.32-3.83-6.7,0,0,1.91-1.12,2.76-6.72S52.82.01,53.67,3.41c0,0,.43,11.9-.85,11.26s-2.13,3.4-6.38,1.59Z"/>
      </g>
    </pattern>
  </defs>
  <g id="Layer_1-2" data-name="Layer 1">
    <g>
      <polygon class="cls-17" points="0 221.97 0 245.04 328.85 241.25 325.69 218.8 0 221.97"/>
      <path class="cls-14" d="M149.72.12c4.14,1.26,12.64,1.38,17.08.09,1.51-.44,3.08.41,3.48,1.93,1.48,5.58,4.6,16.15,7.07,16.5,2.68.38-24.19.22-35.06.14-2.05-.02-3.37-2.17-2.45-4.01l6.62-13.23c.6-1.2,1.98-1.8,3.26-1.41Z"/>
      <line class="cls-1" x1="23.48" y1="231.92" x2="94.19" y2="161.21"/>
      <line class="cls-4" x1="106.56" y1="231.92" x2="206.56" y2="231.92"/>
      <line class="cls-4" x1="8.96" y1="231.92" x2="108.96" y2="231.92"/>
      <line class="cls-4" x1="214.47" y1="237.23" x2="314.48" y2="237.23"/>
      <line class="cls-4" x1="97.17" y1="238.24" x2="197.18" y2="238.24"/>
      <line class="cls-4" x1="23.48" y1="238.24" x2="123.48" y2="238.24"/>
      <line class="cls-4" x1="285.87" y1="226.05" x2="305.06" y2="226.05"/>
      <line class="cls-4" x1="170.38" y1="227.09" x2="270.38" y2="227.09"/>
      <line class="cls-4" x1="91.75" y1="227.09" x2="191.75" y2="227.09"/>
      <line class="cls-4" x1="80.28" y1="227.21" x2="82.78" y2="227.21"/>
      <line class="cls-4" x1="36.34" y1="227.09" x2="38.85" y2="227.09"/>
      <g>
        <line class="cls-4" x1="155.59" y1="7.08" x2="159.42" y2="7.08"/>
        <line class="cls-4" x1="153.04" y1="3.71" x2="162.11" y2="3.71"/>
        <line class="cls-4" x1="155.78" y1="10.17" x2="159.36" y2="10.17"/>
        <line class="cls-4" x1="155.4" y1="12.89" x2="159.74" y2="12.89"/>
        <line class="cls-4" x1="152.14" y1="15.17" x2="163" y2="15.17"/>
      </g>
      <g>
        <path class="cls-11" d="M285.39,16.32L21.99,18.35c-4.61.04-8.33,3.79-8.33,8.4v189.2c0,4.66,3.79,8.43,8.45,8.4l285.09-1.73c5-.03,8.86-4.39,8.29-9.36l-21.7-189.49c-.49-4.27-4.11-7.48-8.41-7.44Z"/>
        <path class="cls-6" d="M153.22,17.34l-131.22,1.01s-8.33-.99-8.33,8.4v189.2s1.98,8.44,8.45,8.4l285.09-1.73s9.06-2.67,8.29-9.36-21.7-189.49-21.7-189.49c0,0-.84-7.5-8.41-7.44l-132.18,1.02Z"/>
      </g>
      <line class="cls-1" x1="313.99" y1="218.2" x2="313.98" y2="218.2"/>
      <line class="cls-1" x1="310.34" y1="221.48" x2="310.26" y2="221.51"/>
      <rect class="cls-1" x="323.95" y="214.59" width="4.9" height="4.22"/>
      <path class="cls-9" d="M67.47,64.43s-3.36.24-2.24-2.9-2.68,0-2.68,0c0,0-10.74-7.25-11.86-6.04s2.01,5.8,2.01,5.8c0,0,.67,1.69-3.58,0,0,0-6.94-11.11-8.28-10.39s-2.46,4.35,3.36,8.94c0,0,6.04,1.69,4.25,7.73,0,0-4.7,1.21-10.51-3.62,0,0,1.12-1.93-12.53-5.8,0,0-4.03,7.03,1.12,9.56,0,0,8.28,1.1,10.07,0,0,0,11.86,1.07,12.75,10.74,0,0,4.47,6.28-9.4,12.56,0,0-15.08,3.87-16.04,3.38s-2.98,4.35,2.62,3.38,13.42-2.66,15.21,1.45c0,0,3.13,4.83-.22,9.9,0,0-8.28,10.32-9.4,9.51s-12.08,3.06-12.98,10.79,15.21-5.31,15.21-5.31c0,0-1.12-6.04,5.59-8.21,0,0,1.12-3.62,6.26-3.14,0,0,2.46-4.11,4.92-.72,0,0-.89,1.45,2.46,0,0,0,3.58-1.93,3.13,1.93,0,0-4.47,4.35-4.47,7.25s6.94-5.56,6.94-5.56c0,0-.89,3.62.89,4.11s1.79-5.31,1.79-5.31c0,0,3.36-1.45,5.59-5.07,0,0,2.68-2.17,2.46,2.66,0,0-1.76,4.11.01,7.73,0,0,3.57,10.87,2.45,18.6,0,0-1.13,36.48.22,38.89,0,0-1.56,15.46,3.14,14.98,4.7-.48,1.12-7.73,1.12-7.73,0,0-2.91-10.39-.89-10.39s-3.8-29.95-1.34-35.75c0,0-2.91-23.67,1.12-26.57,0,0,2.68-.72,5.15,3.38,0,0,.45.89,4.25,3.47,0,0,1.34,1.58,2.68,2.92,0,0-2.91-7.6-1.01-7.6,0,0-.11-4.11,3.92-2.9l3.58,5.31s5.15,7.97,8.5,7.25-8.28-7.25-7.61-9.9c0,0,4.7-1.21.22-3.87,0,0-5.59-10.87,2.24-8.94,0,0,14.09,6.76,14.77,5.31s2.01-3.14-3.13-3.87c-5.15-.72-11.41-5.07-11.41-5.07,0,0-3.36-2.17,3.13-3.87l5.33-.97s-.86-.72-5.33-1.93c0,0-4.92,1.93-4.7-4.11.22-6.04,10.03-5.31,10.03-5.31,0,0,5.63.97,8.99-2.9,0,0,5.15-.24,5.59.97,0,0,6.49-1.93,9.4-.24,0,0,6.26-3.62,8.73-3.14s1.34-3.38-2.01-4.35-8.73,2.9-8.73,2.9c0,0-7.83-.72-9.17,1.69,0,0-4.7,1.69-6.71.97s-8.28,1.93-8.28,1.93c0,0-12.98,4.83-9.4-3.14l3.13-1.45s-5.15,1.45-3.13-6.52c0,0,4.47-6.76,5.82-5.8s5.59-2.9,0-3.62c0,0-6.94,6.76-11.19,6.52,0,0-5.15,0-5.82-.72s-.89,1.93-.89,1.93c0,0-5.59.36-4.03-7.61,0,0,2.01-1.28,2.91-7.64s-7.38-4.92-6.49-1.05c0,0,.45,13.53-.89,12.8s-2.24,3.87-6.71,1.81Z"/>
      <path class="cls-13" d="M116.76,39.72s-.44,4.67-1.33,4.67-6.85-1.27-8.84,4.25c0,0-.66.21-2.43,0s-3.09,3.31,0,3.89c0,0-.33,3.45.22,4.61,1.11,2.34,1.59,3.08-2.08,4.46s-3.67,4.57-3.67,4.57c0,0-1.19,2.67-4.9,1.24-3.72-1.43-3.28,3.76,1.37,3.12,0,0,3.32,3.82,6.19,3.82,0,0-10.61,4.25-11.94,8.92,0,0-3.09,6.59-2.65,9.14,0,0-4.64,2.76-6.19,2.12s5.08-.42,7.52,1.7c0,0,0,3.61,3.98,6.16,0,0,2.43-.42,3.09,2.55l-1.99,1.27s4.2-.85,6.41,1.7c0,0,0,2.55,1.11,2.55s-.88,2.12-.88,2.12h3.32s.88,3.79,5.31,4.02c0,0,3.4,10.93,2.32,19.77,0,0,1.62,13.52.54,15.34,0,0-1.62,2.34.27,7.02l-.27,16.64s0,2.6-1.08,2.86,1.08,5.98,1.08,5.98c0,0,3.52,8.32,1.62,9.62,0,0-2.98,2.04,0,4.4,0,0-4.88,20.56,3.92,18.22,0,0,6.09-3.38,1.76-10.14l.27-5.46s-1.62-1.08-2.43-2.62l-.81-1.54-.27-4.68s3.79-1.49,1.35-5.69c-2.43-4.19.27-3.93.27-3.93,0,0,1.62-2.6-1.89-5.98,0,0-1.35-1.56.27-3.9s.81-8.32-.27-9.88-1.35-10.14.27-11.18-1.08-30.42-1.08-30.42c0,0,2.7-5.72,7.3-1.82,0,0,7.84-1.56,6.49,1.04l.16,7.92-2.32,5.34s-2.16,5.98,3.52,8.32c0,0,3.25-.52,3.79-2.34s-1.08-5.46,0-8.84c0,0,2.93,0,.11-4.16s3.13-10.54,3.13-10.54h2.7s-.54-5.58,3.25-4.54c0,0,.81-3.12,2.7-2.6,0,0-1.08-3.64,1.62-3.64h4.06s-8.11-1.82-2.16-5.46c0,0-1.62-5.98,2.16-6.24l3.52-.52s-8.93-2.6-5.95-9.1c0,0,4.06-3.9-1.89-2.34,0,0-2.7.52-1.89-2.34l.27-3.12s-3.52,3.38-5.41,2.08c0,0-3.03-1.56-1.38-3.38,0,0,1.11-.78-1.32-2.86,0,0,3.46-2.08,1.32-5.2-2.14-3.12-5.92,4.16-5.92,4.16,0,0,1.08-4.42-3.25-6.76,0,0,2.16-4.16-2.7-2.6,0,0-9.74,2.6-3.25-.78,0,0,4.6.52,3.52-2.86,0,0-4.6-4.17,1.62-5.34,0,0-7.03-6.1-6.76-7.66s-2.17-8.47-4.47-5.15Z"/>
      <path class="cls-15" d="M161.24,48.04s-4.19-1.91-4.47-8.48c0,0-4.75-7.38-3.35,0,0,0,.28,2.72-6.98,1.5,0,0-6.98-7.8-3.63,0,0,0-1.12,2.87-5.59,0l-8.94-6.69s-4.47.81,2.51,6.69c0,0,3.91,3.42,3.35,4.79,0,0-1.96,1.09-3.35.82s-1.12,3.28-1.12,3.28l-10.89,1.09,6.14,2.73s-10.61,6.84-4.19,9.57c0,0-3.07,6.84,5.59,6.02,0,0-2.23,6.02,4.47,3.28,0,0-4.75,9.02,4.19,11.21l-2.79,3.28s3.91-1.37,6.14,1.37c0,0,.28,3.28,5.03,2.46l1.12,7.11s-5.59-6.02-6.14,0,5.59,3.01,5.59,3.01c0,0,4.47,3.54.56,7.38l-4.52,1.92s4.24-.82,7.04,2.19l-2.51,4.65s.84-1.64,5.59,1.09c0,0,0,2.19,6.14,2.73l.56,2.73,2.51-1.37.56,3.28s4.19-6.29,8.66-3.01c4.47,3.28,10.61-8.2,10.61-8.2l6.42-.55s1.96-2.46-5.87-3.01l1.4-8.2s-1.4-5.74-6.42-4.65-3.35-5.2-3.35-5.2c0,0-6.7-3.28-7.54-.82s11.45-.27,6.98-4.1c0,0-3.07-7.38,3.07-3.83,6.14,3.55,7.82,5.2,7.82,5.2,0,0-9.78-11.21-5.87-10.94s4.75-7.93,4.75-7.93l6.42-2.46s-5.87-.82-5.59-2.19,4.47-1.91,3.63-3.55-1.68-5.2.56-5.47,1.4-2.73,1.4-2.73c0,0,12.85,3.83,14.52-6.02,1.68-9.84-10.33-6.98-10.33-6.98,0,0-.28,4.24-3.91,4.24s-1.4,4.65-1.4,4.65c0,0-17.6,3.28-18.43,1.37s.56-9.02,3.35-9.02-9.5,5.74-9.5,5.74Z"/>
      <path class="cls-12" d="M193.86,41.99s-1.55-15.83-5.59-1.86v6.21s-1.86,4.35,2.79,6.83c0,0,.87,7.76-.18,8.07s-3.23,2.79-1.37,4.03-4.66-1.86-4.03,3.1c0,0-4.66,1.24-4.03-1.86.62-3.1-1.55-10.24-3.72-1.86,0,0,5.9,15.52,0,14.28l-3.72-4.03s2.48,6.83,0,6.83-15.21,2.79-15.21,2.79c0,0,8.07,1.24,7.76,7.76,0,0-13.97-3.72-14.59,0,0,0-4.66-.62-3.41,1.86s13.04,0,13.04,0c0,0-.62,3.37,7.45,2.61,0,0,6,3.59,2.07,4.21s-15.41,6.83-15.1,8.38,10.86-2.48,10.86-2.48c0,0,5.28-4.66,7.76-1.55,2.48,3.1-3.52,4.39-3.52,4.39l-2.07,4.3s7.14-6.52,9.31-6.21,4.97-1.55,5.28,6.21c0,0-8.07,9.31-6.52,12.1,0,0-3.93,1.24-6,7.45,0,0-8.59,5.28-2.69,10.55,0,0,4.03,1.24,5.9-6.83,0,0,1.24-7.76,3.72-7.14,0,0,5.59-16.5,10.86-18.49,0,0,4.66,1.42,2.48,7.32,0,0-.31,8.69-1.86,9s-8.07,9.93,0,18.93c0,0-1.86,16.71,2.17,20,0,0-4.35,6.89-2.48,16.73,0,0-3.41,6.42.62,10.46,0,0-3.72,7.45-1.24,10.86,0,0-5.9,10.24,3.41,12.1,0,0,9.93.31,8.07-11.17-1.86-11.48-3.41-3.41-3.41-12.41,0,0-4.03-5.7-1.24-9.83,0,0,2.79-.41,0-5.68s0-24.83,0-24.83c0,0,3.1-9.31-1.24-14.28,0,0,.31-20.96,1.55-23.36s4.66,1.63,3.1,4.43c0,0-3.88,7.76,1.47,7.14,5.35-.62,1.63-9,1.63-9,0,0,.62-5.9,4.66-4.66,0,0-.93-5.59,3.41-3.41,0,0,9.93,8.69,12.41,7.14s-6.83-13.35-7.76-13.35,0-3.72,4.97-1.86c0,0,2.48,1.86,4.97-2.17,0,0,8.69-.98,9.31-2.97s-7.1-2.61-7.1-2.61c0,0-2.83-2.79,4-2.79,0,0,10.76,1.55,12.05,0s-15.7-2.79-16.05-1.86-3.14-3.1,3.06-4.03,17.9-4.03,15.93-9c-1.96-4.97-12.21-2.48-15.62,4.66,0,0-21.42,8.69-19.55-10.24,0,0,.93-9.31,4.66-9.31,0,0,5.9-11.48-2.48-3.41,0,0-2.48,11.48-9.62,8.07,0,0-4.54-6.21-6-3.1s-4.56-15.52-3.31-21.11Z"/>
      <path class="cls-7" d="M234.75,36.42s-1.13,18.76-4.18,19.52-6.53,1.91-7.31-3.45c-.77-5.36.32,2.3-3.69-.38-4-2.68-7.15-8.04-10.92-7.66-3.77.38,1.89,7.66,1.89,7.66,0,0,.08,4.98-3.73,1.15,0,0-4.44-15.31-8.84-12.63,0,0-4.4.77,4.72,11.49,0,0,7.23,7.66-.31,6.13s-13.52-11.67-18.86-10.81c-5.34.86-5.34,16.55,10.69,12.72,0,0,11.4.38,12.62,9.19,0,0,5.3,15.31-10.42,17.23,0,0-13.62-1.53-16.09,3.06-2.46,4.59,13.57,2.68,13.57,2.68,0,0,9.12,0,7.23,9.57l-8.8,13.78s-16.03,5.36-14.15,14.93c1.89,9.57,15.72-11.49,15.72-11.49,0,0,2.83-8.04,6.6-8.04,0,0,2.91,2.3,6.33-2.3,0,0,1.22,4.21,6.25,1.15,0,0,3.14,1.53,1.89,4.59,0,0-7.55,3.83-5.34,8.42,0,0,2.52,3.83,8.17-3.83,0,0-.49-8.11,5.1-6.35,0,0-.8-8.96,3.18-6.67,3.98,2.3,2.41,6.67,2.41,6.67,0,0-1.36,12.86,1.2,13.62,0,0,1.75,21.44.9,24.88-.85,3.45.9,8.57,0,12.03-.9,3.47-3.55,9.02,0,13.23,2.2,2.61,2.8,9.85,2.93,14.98.08,3.15,0,5.51,0,5.51,0,0-3.14,3.63,1.26,6.31,4.4,2.68,1.57-13.78,1.57-13.78,0,0-4.72-7.99-2.2-11.46,2.52-3.47-5.03-21.95-.31-30.13,4.72-8.18-8.56-27.71-1.61-38.04,0,0,2.14,7.21,5.02,2.84,2.88-4.37,5.08,4.72,5.08,4.72,0,0,1.57,2.31,4.72,2.55s-1.72-5.89-1.72-5.89c0,0-.8-7.66,4.55-4.59l6.6,10.48s1.57,4.45,5.03,3.3c0,0,3.77.77-4.72-8.81l-3.46-5.74s2.2-.77-.63-5.74c-2.83-4.98,2.52-4.59,2.52-4.59,0,0,.41,2.68,7.12,1.91,0,0,6.08,1.15,6.4,3.45s10.38,1.91,5.03-2.3c-5.34-4.21-8.49-.82-11.95-7.11,0,0-8.8-1.31-6.92-2.84s16.98-1.91,16.98-1.91c0,0-21.69-4.21-17.29-7.66,0,0,10.06-4.59,9.43-6.89-.63-2.3,13.83-2.68,13.83-2.68,0,0,5.03,3.83,10.06-.77,0,0,8.8-.93,9.75-6.21s-11.32,2-11.32,2c0,0-6.92-3.06-11.32.77,0,0-13.21,8.04-17.92,4.59,0,0-5.97-.77-2.52-4.59s-1.89-5.36-1.89-5.36c0,0-3.46-.77,5.03-7.27,0,0,6.6-3.83,4.09-5.74s-11,7.66-14.78,6.89c0,0-5.34-3.45-6.92-.38s-4.19-11.35-2.25-17.93c1.94-6.58-2.15-5.81-3.09-1.98Z"/>
      <path class="cls-16" d="M178.78,56.83s16.3,7.97,26.86,1.81l12.11,24.62s11.33-.77,14.28,5.9c0,0,6.37,5.64.62,16.42-5.75,10.78-11.18,3.59-11.18,3.59,0,0,12.73,8.72,17.86,5.13,0,0,12.27-1.28,17.08,20.27,0,0,3.26,13.85-10.87,23.6,0,0-15.22,5.39-20.5,0,0,0-7.61,6.41-9.01,4.87,0,0-30.59,11-36.64.24,0,0-13.66-11.27-11.65-39.23,0,0-10.4-6.41-10.4-13.6,0,0-3.88-10.52,3.88-18.98,0,0,4.35-4.62,10.4-.51l7.14-34.12Z"/>
      <path class="cls-2" d="M200.42,109.64l16.3,9.75-11.65-4.87s11.49,13.08,20.03,15.39c0,0,8.7,3.85,4.81,18.21-3.88,14.37-13.87,14.91-13.87,14.91"/>
      <path class="cls-11" d="M194.25,74.54s-2.02-2.36-2.17,1.51c0,0,5.43,16.19,6.06,16.45s2.79,1.28,2.17-2.31-6.06-15.65-6.06-15.65Z"/>
      <path class="cls-3" d="M131.4,27.31s-27.73,2.35-35.55,11.5c0,0-7.59,6.08,4.85,8.91,0,0,64.77,7.52,87.76-1.87,0,0,21.08-8.68,24.62-14.08,0,0,.42-5.4-9.29-5.63h-37.39"/>
      <rect class="cls-8" x="148.57" y="24.73" width="6.81" height="3.52"/>
      <path class="cls-16" d="M128.77,84.93s-25.97,6.68-47.11,0c0,0-6.93-4.72-7.3,5.11,0,0-2.45,29.76,4.83,36.06,0,0,11.62,4.05,15.73-8.53,0,0-26.92,31.45-17.94,37.74,0,0,22.06,25.16,37.76,21.62,0,0,37.01-3.15,38.5-31.45,0,0-.37-16.51-14.95-21.62-14.58-5.11-16.82-11.01-16.82-11.01l12.11,6.01s23.44-31.57-4.8-33.93Z"/>
      <ellipse class="cls-16" cx="105.63" cy="69.15" rx="17.64" ry="17.87"/>
      <path class="cls-11" d="M146.34,139.27l-10.09,22.09s9.89-4.82,11.47-9.4-1.38-12.69-1.38-12.69Z"/>
      <path class="cls-11" d="M100.13,54.06s-7.26,1.97-9.26,11.3c-2,9.33,9.26-11.3,9.26-11.3Z"/>
      <path class="cls-10" d="M55.86,168.91s-.86-2.36-1.16,0c0,0-1.68,7.94-2.72,8.14l-5.32.87s-.55-.04-.43.71,1.22.51,1.22.51c0,0,4.59-.16,5.56,4.05,0,0,.49,3.34.67,5.35s1.44,1.73,1.44,1.73c0,0,.79,0,.73-1.65,0,0,.61-7.71,2.11-7.94,0,0,2.69-1.14,4.98-.63,0,0,1.07.18.86-.97,0,0-.18-1.07-1.27-1-.45-.61-4.14,0-4.91-.79l-1.77-8.38Z"/>
    </g>
  </g>
</svg>